<?xml version="1.0" standalone="no"?>
<!DOCTYPE svg PUBLIC "-//W3C//DTD SVG 20010904//EN"
 "http://www.w3.org/TR/2001/REC-SVG-20010904/DTD/svg10.dtd">
<svg version="1.0" xmlns="http://www.w3.org/2000/svg"
 width="1600.000000pt" height="900.000000pt" viewBox="0 0 1600.000000 900.000000"
 preserveAspectRatio="xMidYMid meet">
<metadata>
Created by potrace 1.16, written by Peter Selinger 2001-2019
</metadata>
<g transform="translate(0.000000,900.000000) scale(0.100000,-0.100000)"
fill="#000000" stroke="none">
<path d="M0 4500 l0 -4500 8000 0 8000 0 0 4500 0 4500 -8000 0 -8000 0 0
-4500z m7487 3358 c19 -21 103 -254 711 -1977 l157 -444 3 1197 c2 1081 4
1199 18 1221 l16 25 702 0 c424 0 707 -4 716 -10 13 -8 15 -395 18 -3367 2
-3150 1 -3359 -15 -3370 -24 -18 -63 -17 -361 17 -309 35 -694 66 -935 76
l-168 7 -20 28 c-11 16 -100 255 -198 531 -98 277 -279 788 -402 1136 l-224
633 -3 -1146 c-2 -1075 -3 -1147 -20 -1164 -14 -15 -39 -20 -137 -25 -388 -21
-658 -44 -978 -81 -224 -27 -293 -30 -317 -15 -13 8 -15 395 -18 3366 -1 2478
1 3360 9 3370 9 12 135 14 718 14 l708 0 20 -22z"/>
<path d="M6170 4505 l0 -3235 23 5 c75 17 644 68 962 86 110 6 201 12 202 13
2 1 4 631 5 1399 l2 1397 51 0 51 0 495 -1399 494 -1398 140 -7 c321 -15 637
-40 943 -75 l152 -17 0 3233 0 3233 -595 0 -595 0 -2 -807 c-1 -445 -1 -1099
0 -1455 l1 -648 -53 0 -54 0 -38 113 c-22 61 -253 716 -514 1454 l-475 1343
-597 0 -598 0 0 -3235z"/>
</g>
</svg>
